<svg xmlns="http://www.w3.org/2000/svg" viewBox="-19.386091906738287 159.25474060058593 613.7721925825194 256.49053955078125"> <svg xmlns="http://www.w3.org/2000/svg" xmlns:xlink="http://www.w3.org/1999/xlink" version="1.1" id="Layer_1" x="50.61390809326171" y="229.25474060058593" viewBox="149.53294372558594 123.01815795898438 450.93408203125 503.9636535644531" xml:space="preserve" height="116.49053955078126" width="104.23278704309438" preserveAspectRatio="xMinYMin" enable-background="new 0 0 750 750" style="overflow: visible;"><linearGradient id="SVGID_1_" gradientUnits="userSpaceOnUse" x1="176.4573" y1="552.4377" x2="557.4382" y2="211.9548" style=""><stop offset="0" style="stop-color: #0072FF;"></stop><stop offset="1" style="stop-color: #00FFFF;"></stop></linearGradient><path class="st0" d="M432.4,160.1c10.2-5.9,23.2-2.4,29.1,7.8s2.4,23.2-7.8,29.1c-10.2,5.9-23.2,2.4-29.1-7.8S422.2,166,432.4,160.1  z M306.9,157.2c-11.8,0-21.3,9.5-21.3,21.3s9.5,21.3,21.3,21.3s21.3-9.5,21.3-21.3S318.7,157.2,306.9,157.2z M427.4,266.1  c5,8.7,16.1,11.6,24.8,6.6c8.7-5,11.6-16.1,6.6-24.8c-5-8.7-16.1-11.6-24.8-6.6C425.4,246.4,422.4,257.4,427.4,266.1z M387.2,303.4  c3.9-6.7,1.6-15.4-5.2-19.3c-6.7-3.9-15.4-1.6-19.3,5.2c-3.9,6.7-1.6,15.4,5.2,19.3C374.7,312.5,383.3,310.2,387.2,303.4z   M389,147.4c4.5-7.8,1.8-17.7-5.9-22.2s-17.7-1.8-22.2,5.9s-1.8,17.7,5.9,22.2S384.6,155.1,389,147.4z M306.9,238.9  c-10,0-18.1,8.1-18.1,18.1c0,10,8.1,18.1,18.1,18.1c10,0,18.1-8.1,18.1-18.1C325,247,316.9,238.9,306.9,238.9z M375,249.1  c17.3,0,31.3-14,31.3-31.3s-14-31.3-31.3-31.3s-31.3,14-31.3,31.3S357.7,249.1,375,249.1z M238.9,239.1c11.8,0,21.3-9.5,21.3-21.3  c0-11.8-9.5-21.3-21.3-21.3s-21.3,9.5-21.3,21.3C217.6,229.6,227.2,239.1,238.9,239.1z M152.4,325.1c-5.9,10.2-2.4,23.2,7.8,29.1  s23.2,2.4,29.1-7.8c5.9-10.2,2.4-23.2-7.8-29.1S158.3,314.9,152.4,325.1z M319.1,328.6c-3.9-6.7-12.5-9.1-19.3-5.2  c-6.7,3.9-9.1,12.5-5.2,19.3c3.9,6.7,12.5,9.1,19.3,5.2C320.7,344,323,335.4,319.1,328.6z M184.9,249c-4.5-7.8-14.4-10.4-22.2-5.9  c-7.8,4.5-10.4,14.4-5.9,22.2c4.5,7.8,14.4,10.4,22.2,5.9C186.7,266.7,189.4,256.8,184.9,249z M223.1,365.9c-5,8.7-2,19.7,6.6,24.8  c8.7,5,19.7,2,24.8-6.6c5-8.7,2-19.7-6.6-24.8C239.2,354.3,228.1,357.3,223.1,365.9z M266,312c8.7-15,3.5-34.2-11.5-42.8  c-15-8.7-34.2-3.5-42.8,11.5c-8.7,15-3.5,34.2,11.5,42.8S257.3,327,266,312z M189.3,424.9c5.9-10.2,2.4-23.2-7.8-29.1  s-23.2-2.4-29.1,7.8c-5.9,10.2-2.4,23.2,7.8,29.1S183.4,435.1,189.3,424.9z M220.5,542.9c5.9,10.2,18.9,13.7,29.1,7.8  s13.7-18.9,7.8-29.1c-5.9-10.2-18.9-13.7-29.1-7.8C218.1,519.6,214.6,532.7,220.5,542.9z M306.9,400.2c-7.8,0-14.1,6.3-14.1,14.1  s6.3,14.1,14.1,14.1s14.1-6.3,14.1-14.1S314.7,400.2,306.9,400.2z M170.8,476.7c-9,0-16.2,7.3-16.2,16.2c0,9,7.3,16.2,16.2,16.2  c9,0,16.2-7.3,16.2-16.2C187.1,483.9,179.8,476.7,170.8,476.7z M291.2,501.9c5,8.7,16.1,11.6,24.8,6.6c8.7-5,11.6-16.1,6.6-24.8  s-16.1-11.6-24.8-6.6C289.2,482.2,286.2,493.3,291.2,501.9z M266,438c-8.7-15-27.8-20.1-42.8-11.5s-20.1,27.8-11.5,42.8  c8.7,15,27.8,20.1,42.8,11.5C269.5,472.1,274.6,453,266,438z M325.4,560.8c-5.9-10.2-18.9-13.7-29.1-7.8  c-10.2,5.9-13.7,18.9-7.8,29.1s18.9,13.7,29.1,7.8C327.8,584,331.2,571,325.4,560.8z M443.1,592.8c11.8,0,21.3-9.5,21.3-21.3  s-9.5-21.3-21.3-21.3s-21.3,9.5-21.3,21.3S431.3,592.8,443.1,592.8z M362.8,446.6c-3.9,6.7-1.6,15.4,5.2,19.3  c6.7,3.9,15.4,1.6,19.3-5.2c3.9-6.7,1.6-15.4-5.2-19.3C375.3,437.5,366.7,439.8,362.8,446.6z M361,602.6c-4.5,7.8-1.8,17.7,5.9,22.2  c7.8,4.5,17.7,1.8,22.2-5.9s1.8-17.7-5.9-22.2S365.4,594.9,361,602.6z M443.1,511c10,0,18.1-8.1,18.1-18.1c0-10-8.1-18.1-18.1-18.1  c-10,0-18.1,8.1-18.1,18.1C425,502.9,433.1,511,443.1,511z M375,500.9c-17.3,0-31.3,14-31.3,31.3s14,31.3,31.3,31.3  s31.3-14,31.3-31.3S392.3,500.9,375,500.9z M511.1,510.9c-11.8,0-21.3,9.5-21.3,21.3s9.5,21.3,21.3,21.3c11.8,0,21.3-9.5,21.3-21.3  S522.8,510.9,511.1,510.9z M597.6,424.9c5.9-10.2,2.4-23.2-7.8-29.1c-10.2-5.9-23.2-2.4-29.1,7.8c-5.9,10.2-2.4,23.2,7.8,29.1  C578.7,438.6,591.7,435.1,597.6,424.9z M430.9,421.4c3.9,6.7,12.5,9.1,19.3,5.2c6.7-3.9,9.1-12.5,5.2-19.3  c-3.9-6.7-12.5-9.1-19.3-5.2C429.3,406,427,414.6,430.9,421.4z M565.1,501c4.5,7.8,14.4,10.4,22.2,5.9s10.4-14.4,5.9-22.2  c-4.5-7.8-14.4-10.4-22.2-5.9C563.3,483.3,560.6,493.2,565.1,501z M526.9,384.1c5-8.7,2-19.7-6.6-24.8c-8.7-5-19.7-2-24.8,6.6  c-5,8.7-2,19.7,6.6,24.8C510.8,395.7,521.9,392.7,526.9,384.1z M484,438c-8.7,15-3.5,34.2,11.5,42.8c15,8.7,34.2,3.5,42.8-11.5  c8.7-15,3.5-34.2-11.5-42.8C511.9,417.8,492.7,423,484,438z M560.7,325.1c-5.9,10.2-2.4,23.2,7.8,29.1c10.2,5.9,23.2,2.4,29.1-7.8  c5.9-10.2,2.4-23.2-7.8-29.1C579.6,311.4,566.6,314.9,560.7,325.1z M529.5,207.1c-5.9-10.2-18.9-13.7-29.1-7.8  c-10.2,5.9-13.7,18.9-7.8,29.1s18.9,13.7,29.1,7.8C531.9,230.4,535.4,217.3,529.5,207.1z M443.1,349.8c7.8,0,14.1-6.3,14.1-14.1  s-6.3-14.1-14.1-14.1s-14.1,6.3-14.1,14.1S435.3,349.8,443.1,349.8z M579.2,273.3c9,0,16.2-7.3,16.2-16.2c0-9-7.3-16.2-16.2-16.2  s-16.2,7.3-16.2,16.2C562.9,266.1,570.2,273.3,579.2,273.3z M484,312c8.7,15,27.8,20.1,42.8,11.5c15-8.7,20.1-27.8,11.5-42.8  c-8.7-15-27.8-20.1-42.8-11.5C480.5,277.9,475.4,297,484,312z" style="fill: #1f212b; fill-opacity: 1;"></path></svg> <svg x="169.956108" y="271.749741" viewBox="3.7300000190734863 11.520000457763672 354.42999267578125 32.57999801635742" height="32.57999801635742" width="354.42999267578125" style="overflow: visible;"><g fill="#1f212b" fill-opacity="1" style=""><path d="M18.04 43.56L3.73 43.56L3.73 12.06L18.04 12.06Q23.18 12.06 27.09 14.02Q31.00 15.97 33.21 19.48Q35.41 22.99 35.41 27.81L35.41 27.81Q35.41 32.58 33.21 36.11Q31.00 39.64 27.09 41.60Q23.18 43.56 18.04 43.56L18.04 43.56ZM11.03 18.04L11.03 37.57L17.68 37.57Q20.84 37.57 23.15 36.38Q25.47 35.19 26.75 32.98Q28.04 30.78 28.04 27.81L28.04 27.81Q28.04 24.79 26.75 22.61Q25.47 20.43 23.15 19.24Q20.84 18.04 17.68 18.04L17.68 18.04L11.03 18.04ZM52.42 43.92L52.42 43.92Q48.29 43.92 45.16 42.30Q42.03 40.68 40.32 37.87Q38.61 35.05 38.61 31.45L38.61 31.45Q38.61 27.81 40.30 25.00Q41.98 22.18 44.91 20.59Q47.84 18.99 51.52 18.99L51.52 18.99Q55.08 18.99 57.94 20.50Q60.80 22.00 62.46 24.82Q64.13 27.63 64.13 31.54L64.13 31.54Q64.13 31.95 64.08 32.47Q64.03 32.98 63.99 33.43L63.99 33.43L44.33 33.43L44.33 29.34L60.30 29.34L57.60 30.55Q57.60 28.66 56.84 27.27Q56.07 25.87 54.72 25.09Q53.37 24.30 51.57 24.30L51.57 24.30Q49.77 24.30 48.40 25.09Q47.03 25.87 46.26 27.29Q45.50 28.71 45.50 30.64L45.50 30.64L45.50 31.72Q45.50 33.70 46.37 35.21Q47.25 36.72 48.85 37.51Q50.45 38.29 52.61 38.29L52.61 38.29Q54.54 38.29 56.00 37.71Q57.47 37.12 58.68 35.95L58.68 35.95L62.41 40.00Q60.75 41.89 58.23 42.91Q55.71 43.92 52.42 43.92ZM75.83 43.56L68.80 43.56L68.80 19.35L75.51 19.35L75.51 26.19L74.56 24.21Q75.64 21.64 78.03 20.32Q80.41 18.99 83.83 18.99L83.83 18.99L83.83 25.47Q83.38 25.42 83.03 25.40Q82.66 25.38 82.26 25.38L82.26 25.38Q79.38 25.38 77.60 27.02Q75.83 28.66 75.83 32.13L75.83 32.13L75.83 43.56ZM95.22 43.56L88.20 43.56L88.20 19.35L94.91 19.35L94.91 25.96L93.64 24.03Q94.91 21.55 97.22 20.27Q99.54 18.99 102.51 18.99L102.51 18.99Q105.84 18.99 108.34 20.68Q110.83 22.36 111.64 25.83L111.64 25.83L109.17 25.15Q110.38 22.32 113.06 20.65Q115.74 18.99 119.20 18.99L119.20 18.99Q122.08 18.99 124.31 20.14Q126.54 21.28 127.82 23.65Q129.10 26.01 129.10 29.70L129.10 29.70L129.10 43.56L122.08 43.56L122.08 30.78Q122.08 27.85 120.87 26.46Q119.66 25.06 117.45 25.06L117.45 25.06Q115.92 25.06 114.70 25.76Q113.49 26.46 112.81 27.85Q112.14 29.25 112.14 31.41L112.14 31.41L112.14 43.56L105.12 43.56L105.12 30.78Q105.12 27.85 103.93 26.46Q102.73 25.06 100.53 25.06L100.53 25.06Q99 25.06 97.78 25.76Q96.57 26.46 95.89 27.85Q95.22 29.25 95.22 31.41L95.22 31.41L95.22 43.56ZM156.82 43.56L150.25 43.56L150.25 38.83L149.81 37.80L149.81 29.34Q149.81 27.09 148.43 25.83Q147.06 24.57 144.22 24.57L144.22 24.57Q142.29 24.57 140.42 25.18Q138.55 25.78 137.25 26.82L137.25 26.82L134.73 21.91Q136.71 20.52 139.50 19.75Q142.29 18.99 145.17 18.99L145.17 18.99Q150.70 18.99 153.76 21.60Q156.82 24.21 156.82 29.74L156.82 29.74L156.82 43.56ZM142.88 43.92L142.88 43.92Q140.04 43.92 138.01 42.95Q135.99 41.98 134.91 40.32Q133.83 38.65 133.83 36.58L133.83 36.58Q133.83 34.42 134.89 32.80Q135.94 31.18 138.24 30.26Q140.53 29.34 144.22 29.34L144.22 29.34L150.66 29.34L150.66 33.43L144.99 33.43Q142.51 33.43 141.59 34.24Q140.67 35.05 140.67 36.27L140.67 36.27Q140.67 37.62 141.73 38.41Q142.78 39.19 144.63 39.19L144.63 39.19Q146.38 39.19 147.78 38.36Q149.17 37.53 149.81 35.91L149.81 35.91L150.88 39.15Q150.12 41.49 148.09 42.70Q146.07 43.92 142.88 43.92ZM174.02 44.10L174.02 44.10Q170.24 44.10 166.77 43.09Q163.31 42.07 161.19 40.45L161.19 40.45L163.67 34.96Q165.69 36.40 168.46 37.33Q171.22 38.25 174.06 38.25L174.06 38.25Q176.22 38.25 177.55 37.82Q178.88 37.39 179.50 36.63Q180.13 35.86 180.13 34.87L180.13 34.87Q180.13 33.61 179.15 32.87Q178.16 32.13 176.53 31.66Q174.92 31.18 172.96 30.76Q171 30.33 169.04 29.70Q167.09 29.07 165.47 28.08Q163.84 27.09 162.83 25.47Q161.82 23.85 161.82 21.33L161.82 21.33Q161.82 18.63 163.28 16.40Q164.75 14.17 167.69 12.85Q170.64 11.52 175.09 11.52L175.09 11.52Q178.06 11.52 180.94 12.22Q183.83 12.91 186.03 14.31L186.03 14.31L183.78 19.84Q181.58 18.58 179.37 17.98Q177.17 17.37 175.05 17.37L175.05 17.37Q172.94 17.37 171.59 17.86Q170.24 18.36 169.65 19.15Q169.06 19.93 169.06 20.97L169.06 20.97Q169.06 22.18 170.06 22.93Q171.05 23.67 172.67 24.12Q174.28 24.57 176.24 25.02Q178.20 25.47 180.16 26.05Q182.12 26.64 183.74 27.63Q185.36 28.62 186.37 30.24Q187.38 31.86 187.38 34.33L187.38 34.33Q187.38 36.99 185.90 39.19Q184.41 41.40 181.46 42.75Q178.52 44.10 174.02 44.10ZM203.58 43.92L203.58 43.92Q199.67 43.92 196.61 42.32Q193.55 40.72 191.81 37.89Q190.08 35.05 190.08 31.45L190.08 31.45Q190.08 27.81 191.81 25.00Q193.55 22.18 196.61 20.59Q199.67 18.99 203.58 18.99L203.58 18.99Q207.41 18.99 210.24 20.59Q213.08 22.18 214.43 25.15L214.43 25.15L208.98 28.08Q208.04 26.37 206.62 25.56Q205.20 24.75 203.54 24.75L203.54 24.75Q201.74 24.75 200.30 25.56Q198.86 26.37 198.02 27.85Q197.19 29.34 197.19 31.45L197.19 31.45Q197.19 33.57 198.02 35.05Q198.86 36.54 200.30 37.35Q201.74 38.16 203.54 38.16L203.54 38.16Q205.20 38.16 206.62 37.37Q208.04 36.58 208.98 34.83L208.98 34.83L214.43 37.80Q213.08 40.72 210.24 42.32Q207.41 43.92 203.58 43.92ZM239.90 43.56L233.33 43.56L233.33 38.83L232.88 37.80L232.88 29.34Q232.88 27.09 231.50 25.83Q230.13 24.57 227.30 24.57L227.30 24.57Q225.36 24.57 223.49 25.18Q221.63 25.78 220.32 26.82L220.32 26.82L217.80 21.91Q219.78 20.52 222.57 19.75Q225.36 18.99 228.24 18.99L228.24 18.99Q233.78 18.99 236.84 21.60Q239.90 24.21 239.90 29.74L239.90 29.74L239.90 43.56ZM225.95 43.92L225.95 43.92Q223.11 43.92 221.09 42.95Q219.06 41.98 217.98 40.32Q216.90 38.65 216.90 36.58L216.90 36.58Q216.90 34.42 217.96 32.80Q219.02 31.18 221.31 30.26Q223.61 29.34 227.30 29.34L227.30 29.34L233.73 29.34L233.73 33.43L228.06 33.43Q225.59 33.43 224.66 34.24Q223.74 35.05 223.74 36.27L223.74 36.27Q223.74 37.62 224.80 38.41Q225.86 39.19 227.70 39.19L227.70 39.19Q229.46 39.19 230.85 38.36Q232.25 37.53 232.88 35.91L232.88 35.91L233.96 39.15Q233.19 41.49 231.17 42.70Q229.14 43.92 225.95 43.92ZM253.26 43.56L246.24 43.56L246.24 19.35L252.94 19.35L252.94 26.05L251.69 24.03Q252.99 21.60 255.42 20.29Q257.85 18.99 260.95 18.99L260.95 18.99Q263.83 18.99 266.11 20.14Q268.38 21.28 269.69 23.65Q270.99 26.01 270.99 29.70L270.99 29.70L270.99 43.56L263.97 43.56L263.97 30.78Q263.97 27.85 262.69 26.46Q261.40 25.06 259.06 25.06L259.06 25.06Q257.40 25.06 256.07 25.76Q254.75 26.46 254.00 27.90Q253.26 29.34 253.26 31.59L253.26 31.59L253.26 43.56ZM286.07 44.10L286.07 44.10Q282.78 44.10 279.54 43.22Q276.30 42.34 274.05 40.72L274.05 40.72L276.89 35.14Q278.69 36.45 281.07 37.21Q283.46 37.98 285.89 37.98L285.89 37.98Q288.63 37.98 290.21 36.90Q291.78 35.82 291.78 33.93L291.78 33.93Q291.78 32.13 290.39 31.09Q288.99 30.06 285.89 30.06L285.89 30.06L282.56 30.06L282.56 25.24L291.33 15.30L292.14 17.91L275.63 17.91L275.63 12.06L297.68 12.06L297.68 16.78L288.95 26.73L285.26 24.61L287.37 24.61Q293.18 24.61 296.15 27.22Q299.12 29.83 299.12 33.93L299.12 33.93Q299.12 36.58 297.72 38.90Q296.33 41.22 293.45 42.66Q290.57 44.10 286.07 44.10ZM316.57 44.10L316.57 44.10Q312.25 44.10 309.08 42.30Q305.91 40.50 304.20 37.03Q302.49 33.57 302.49 28.48L302.49 28.48Q302.49 23.04 304.54 19.26Q306.59 15.48 310.21 13.50Q313.83 11.52 318.56 11.52L318.56 11.52Q321.07 11.52 323.37 12.06Q325.67 12.60 327.33 13.68L327.33 13.68L324.63 19.03Q323.32 18.13 321.84 17.80Q320.36 17.46 318.74 17.46L318.74 17.46Q314.64 17.46 312.25 19.93Q309.87 22.41 309.87 27.27L309.87 27.27Q309.87 28.08 309.89 29.07Q309.92 30.06 310.14 31.05L310.14 31.05L308.12 29.16Q308.97 27.40 310.32 26.21Q311.67 25.02 313.54 24.41Q315.41 23.80 317.66 23.80L317.66 23.80Q320.72 23.80 323.15 25.02Q325.57 26.23 327.04 28.44Q328.50 30.64 328.50 33.61L328.50 33.61Q328.50 36.81 326.90 39.17Q325.31 41.53 322.63 42.82Q319.95 44.10 316.57 44.10ZM316.17 38.65L316.17 38.65Q317.70 38.65 318.89 38.09Q320.09 37.53 320.76 36.45Q321.44 35.37 321.44 33.97L321.44 33.97Q321.44 31.81 319.97 30.53Q318.51 29.25 316.08 29.25L316.08 29.25Q314.46 29.25 313.25 29.86Q312.03 30.46 311.33 31.52Q310.63 32.58 310.63 33.97L310.63 33.97Q310.63 35.32 311.31 36.38Q311.99 37.44 313.20 38.05Q314.42 38.65 316.17 38.65ZM344.66 44.10L344.66 44.10Q340.79 44.10 337.73 42.19Q334.67 40.27 332.91 36.63Q331.16 32.98 331.16 27.81L331.16 27.81Q331.16 22.63 332.91 18.99Q334.67 15.34 337.73 13.43Q340.79 11.52 344.66 11.52L344.66 11.52Q348.57 11.52 351.61 13.43Q354.65 15.34 356.40 18.99Q358.16 22.63 358.16 27.81L358.16 27.81Q358.16 32.98 356.40 36.63Q354.65 40.27 351.61 42.19Q348.57 44.10 344.66 44.10ZM344.66 37.93L344.66 37.93Q346.50 37.93 347.87 36.90Q349.25 35.86 350.03 33.61Q350.82 31.36 350.82 27.81L350.82 27.81Q350.82 24.25 350.03 22.00Q349.25 19.75 347.87 18.72Q346.50 17.68 344.66 17.68L344.66 17.68Q342.86 17.68 341.48 18.72Q340.11 19.75 339.32 22.00Q338.54 24.25 338.54 27.81L338.54 27.81Q338.54 31.36 339.32 33.61Q340.11 35.86 341.48 36.90Q342.86 37.93 344.66 37.93Z" transform="translate(0, 0)"></path></g></svg></svg>